Coordinates
version=1
nRows=17
nColumns=40
inDegrees=yes

Units are S.I. units (second, meters, Newtons, ...)
If the header above contains a line with 'inDegrees', this indicates whether rotational values are in degrees (yes) or radians (no).

endheader
time	pelvis_tilt	pelvis_list	pelvis_rotation	pelvis_tx	pelvis_ty	pelvis_tz	hip_flexion_r	hip_adduction_r	hip_rotation_r	knee_angle_r	knee_angle_r_beta	ankle_angle_r	subtalar_angle_r	mtp_angle_r	hip_flexion_l	hip_adduction_l	hip_rotation_l	knee_angle_l	knee_angle_l_beta	ankle_angle_l	subtalar_angle_l	mtp_angle_l	lumbar_extension	lumbar_bending	lumbar_rotation	arm_flex_r	arm_add_r	arm_rot_r	elbow_flex_r	pro_sup_r	wrist_flex_r	wrist_dev_r	arm_flex_l	arm_add_l	arm_rot_l	elbow_flex_l	pro_sup_l	wrist_flex_l	wrist_dev_l
      3.17000000	    -47.05599889	     -3.14643637	      2.60819133	     -0.39039378	      0.59714187	     -0.90225904	    110.29678280	    -25.14050235	     -6.00796423	     94.83766786	      1.65522956	     28.93787090	      0.00000000	      0.00000000	    113.24156356	    -20.55244356	     -0.49089054	     95.13953294	      1.66049810	     29.34959766	      0.00000000	      0.00000000	    -10.82515183	      3.57232583	     -6.29993372	    -41.19734346	    -31.22577172	     -1.46038286	    118.52410809	     87.92927071	      0.00000000	      0.00000000	    -45.18718132	    -29.08286888	     -2.57178072	    113.81694737	     88.09394828	      0.00000000	      0.00000000
      3.17500000	    -47.04471878	     -3.12985667	      2.64284489	     -0.39033904	      0.59715421	     -0.90236766	    110.31549417	    -25.19161181	     -5.97262015	     94.87182588	      1.65582573	     28.83166201	      0.00000000	      0.00000000	    113.23529276	    -20.51639613	     -0.50710641	     95.17271083	      1.66107716	     29.25086385	      0.00000000	      0.00000000	    -10.82902284	      3.56455159	     -6.35849142	    -41.16050160	    -31.25525388	     -1.41677367	    118.52153222	     87.91403270	      0.00000000	      0.00000000	    -45.19217823	    -29.07188068	     -2.59799715	    113.81678901	     88.09792978	      0.00000000	      0.00000000
      3.18000000	    -47.14236324	     -3.11146764	      2.74671908	     -0.39057622	      0.59702552	     -0.90263869	    110.45375401	    -25.28935989	     -5.87679890	     94.84927711	      1.65543218	     28.84230786	      0.00000000	      0.00000000	    113.28536218	    -20.36563402	     -0.56375167	     95.09356704	      1.65969584	     29.30935268	      0.00000000	      0.00000000	    -10.72565052	      3.56350690	     -6.49481407	    -41.14058924	    -31.26903343	     -1.39665647	    118.54165511	     87.90098483	      0.00000000	      0.00000000	    -45.22736756	    -29.04227876	     -2.63011287	    113.85381871	     88.12337546	      0.00000000	      0.00000000
      3.18500000	    -47.15950503	     -3.11951558	      2.75463357	     -0.39056679	      0.59699358	     -0.90266769	    110.47323344	    -25.30700677	     -5.89093925	     94.86174818	      1.65564984	     28.84476682	      0.00000000	      0.00000000	    113.30748281	    -20.34911749	     -0.55566799	     95.10038834	      1.65981490	     29.32140036	      0.00000000	      0.00000000	    -10.69905933	      3.57696399	     -6.44137960	    -41.21297473	    -31.17715280	     -1.49634237	    118.55154760	     87.89549391	      0.00000000	      0.00000000	    -45.14381790	    -29.10612929	     -2.54991536	    113.84296990	     88.10953729	      0.00000000	      0.00000000
      3.19000000	    -47.11716482	     -3.13568494	      2.86396407	     -0.39040095	      0.59705374	     -0.90299006	    110.42670346	    -25.45150209	     -5.85913525	     94.88598242	      1.65607281	     28.86682019	      0.00000000	      0.00000000	    113.23964276	    -20.22865847	     -0.59434372	     95.08035352	      1.65946522	     29.35065129	      0.00000000	      0.00000000	    -10.73582063	      3.64646360	     -6.51193720	    -41.23164075	    -31.17772953	     -1.53003639	    118.54928480	     87.87322370	      0.00000000	      0.00000000	    -45.05961768	    -29.10224780	     -2.48941421	    113.78839129	     88.13310175	      0.00000000	      0.00000000
      3.19500000	    -47.12814414	     -3.17238690	      2.85219531	     -0.39042440	      0.59703084	     -0.90295485	    110.42013250	    -25.43800869	     -5.91198975	     94.88290174	      1.65601904	     28.88416128	      0.00000000	      0.00000000	    113.27721107	    -20.21984791	     -0.53360175	     95.08639985	      1.65957075	     29.32838431	      0.00000000	      0.00000000	    -10.71524734	      3.68097495	     -6.47747959	    -41.23880057	    -31.18549835	     -1.54635035	    118.57834565	     87.91317577	      0.00000000	      0.00000000	    -45.03220812	    -29.14427393	     -2.45154044	    113.79948643	     88.11195352	      0.00000000	      0.00000000
      3.20000000	    -47.01136581	     -3.13839774	      2.81897880	     -0.39002159	      0.59718133	     -0.90291395	    110.28662921	    -25.41321026	     -5.91209812	     94.90966597	      1.65648616	     28.93126626	      0.00000000	      0.00000000	    113.13217923	    -20.30771535	     -0.57431409	     95.15099886	      1.66069822	     29.37307658	      0.00000000	      0.00000000	    -10.84086717	      3.64772656	     -6.42140254	    -41.22910495	    -31.10773957	     -1.59145811	    118.54163374	     87.84559009	      0.00000000	      0.00000000	    -44.97951385	    -29.15172401	     -2.44648104	    113.77846069	     88.17446428	      0.00000000	      0.00000000
      3.20500000	    -46.99079917	     -3.16367041	      2.84599134	     -0.38993362	      0.59725603	     -0.90301039	    110.24541451	    -25.47240187	     -5.95385727	     94.91744551	      1.65662194	     28.92848855	      0.00000000	      0.00000000	    113.08920534	    -20.26126376	     -0.56596824	     95.11618905	      1.66009067	     29.48878226	      0.00000000	      0.00000000	    -10.84465900	      3.69043852	     -6.45381457	    -41.16084197	    -31.16404845	     -1.50401501	    118.51528797	     87.83336307	      0.00000000	      0.00000000	    -44.92269104	    -29.14274507	     -2.39053175	    113.72374044	     88.15280084	      0.00000000	      0.00000000
      3.21000000	    -46.97618723	     -3.12868417	      2.81673688	     -0.38984054	      0.59732490	     -0.90299297	    110.22278654	    -25.42550022	     -5.91740173	     94.89675001	      1.65626074	     28.95291380	      0.00000000	      0.00000000	    113.07509704	    -20.30965254	     -0.59125263	     95.14186561	      1.66053881	     29.39426553	      0.00000000	      0.00000000	    -10.86080444	      3.65265922	     -6.45028679	    -41.10139281	    -31.17108875	     -1.46761757	    118.48856998	     87.85662164	      0.00000000	      0.00000000	    -44.90989975	    -29.13159208	     -2.39588321	    113.72315743	     88.14470397	      0.00000000	      0.00000000
      3.21500000	    -47.06503478	     -3.26214170	      2.75296156	     -0.39003588	      0.59716163	     -0.90279504	    110.23404860	    -25.36717427	     -6.08206176	     94.87217656	      1.65583185	     28.98371722	      0.00000000	      0.00000000	    113.23622414	    -20.30648754	     -0.38421730	     95.08310369	      1.65951322	     29.53511676	      0.00000000	      0.00000000	    -10.76767455	      3.77529753	     -6.38783438	    -41.10392147	    -31.19750121	     -1.45446420	    118.53222581	     87.68632276	      0.00000000	      0.00000000	    -44.95214334	    -29.05147229	     -2.44803202	    113.75640580	     88.19276867	      0.00000000	      0.00000000
      3.22000000	    -46.21692796	     -3.12124576	      2.71793559	     -0.38784078	      0.59850781	     -0.90281981	    109.27502715	    -25.42858004	     -6.13104999	     95.02808022	      1.65855288	     29.07987699	      0.00000000	      0.00000000	    112.25471304	    -20.64644072	     -0.65245525	     95.37942474	      1.66468500	     29.46578718	      0.00000000	      0.00000000	    -11.68188054	      3.65355603	     -6.36038214	    -40.76170816	    -31.16983629	     -1.29032021	    118.28289185	     87.85060455	      0.00000000	      0.00000000	    -44.74532479	    -29.00861674	     -2.42188152	    113.51294290	     88.14602765	      0.00000000	      0.00000000
      3.22500000	    -46.90883734	     -3.14484285	      2.82677021	     -0.38952024	      0.59736652	     -0.90315668	    110.14123026	    -25.46779840	     -5.93893356	     94.93026129	      1.65684562	     28.92821440	      0.00000000	      0.00000000	    112.99618667	    -20.31046662	     -0.59611394	     95.17890329	      1.66118524	     29.40579785	      0.00000000	      0.00000000	    -10.90679602	      3.68980671	     -6.41543095	    -41.08717856	    -31.15567250	     -1.50729259	    118.48424075	     87.94016367	      0.00000000	      0.00000000	    -44.83367218	    -29.13647084	     -2.32183291	    113.69206171	     88.08949417	      0.00000000	      0.00000000
      3.23000000	    -46.69801483	     -3.17283624	      2.58924698	     -0.38887024	      0.59760579	     -0.90257328	    109.80973675	    -25.22959389	     -6.12665935	     94.95061842	      1.65720092	     29.02309857	      0.00000000	      0.00000000	    112.85701201	    -20.65672693	     -0.48760306	     95.31966973	      1.66364208	     29.41075053	      0.00000000	      0.00000000	    -11.13564180	      3.67777557	     -6.07948329	    -41.13034674	    -31.02925997	     -1.58648910	    118.43883007	     87.95545453	      0.00000000	      0.00000000	    -44.69143461	    -29.23741353	     -2.19010264	    113.60685980	     88.07465266	      0.00000000	      0.00000000
      3.23500000	    -46.63459450	     -3.17553502	      2.47822462	     -0.38857857	      0.59763190	     -0.90231609	    109.69386926	    -25.10777978	     -6.18433529	     94.95100828	      1.65720772	     29.08275524	      0.00000000	      0.00000000	    112.81061173	    -20.82993137	     -0.48251465	     95.38687494	      1.66481503	     29.49277792	      0.00000000	      0.00000000	    -11.19889347	      3.65724868	     -5.99127462	    -41.09705640	    -31.02483881	     -1.52575994	    118.40982568	     87.86914578	      0.00000000	      0.00000000	    -44.73622864	    -29.19715632	     -2.23640940	    113.58555897	     88.08255956	      0.00000000	      0.00000000
      3.24000000	    -46.73264374	     -3.13204679	      2.71212181	     -0.38892542	      0.59753351	     -0.90299637	    109.89969730	    -25.37113990	     -6.00806413	     94.95998612	      1.65736442	     29.02392386	      0.00000000	      0.00000000	    112.83175195	    -20.48744338	     -0.56702812	     95.28426054	      1.66302407	     29.46054914	      0.00000000	      0.00000000	    -11.08529649	      3.67372720	     -6.24995912	    -41.09644528	    -31.09174395	     -1.54725363	    118.45688121	     87.84931713	      0.00000000	      0.00000000	    -44.73600737	    -29.17767215	     -2.23258067	    113.59817699	     88.15449039	      0.00000000	      0.00000000
      3.24500000	    -46.60963182	     -3.09036032	      2.49980236	     -0.38852078	      0.59764682	     -0.90251893	    109.74182947	    -25.12014418	     -6.04805924	     94.97743595	      1.65766897	     28.94800573	      0.00000000	      0.00000000	    112.74373722	    -20.79558742	     -0.54432681	     95.39736855	      1.66499818	     29.43409878	      0.00000000	      0.00000000	    -11.22587755	      3.59672159	     -5.99510270	    -41.11015668	    -30.98104332	     -1.57645252	    118.42425116	     87.91065667	      0.00000000	      0.00000000	    -44.69258740	    -29.24087092	     -2.23323902	    113.55341907	     88.12051499	      0.00000000	      0.00000000
      3.25000000	    -46.64835430	     -3.11994839	      2.76691121	     -0.38864873	      0.59761117	     -0.90326191	    109.81863407	    -25.45953082	     -5.97935076	     94.99920735	      1.65804895	     29.04218579	      0.00000000	      0.00000000	    112.73273572	    -20.41966455	     -0.58706588	     95.33775719	      1.66395776	     29.43686382	      0.00000000	      0.00000000	    -11.16510683	      3.69841436	     -6.28188723	    -41.11519536	    -31.07800291	     -1.58856815	    118.43769584	     87.86678398	      0.00000000	      0.00000000	    -44.67590790	    -29.16771492	     -2.20680648	    113.55180363	     88.14417361	      0.00000000	      0.00000000
